<svg aria-hidden="true" style="position: absolute; width: 0; height: 0; overflow: hidden;" version="1.1" xmlns="http://www.w3.org/2000/svg" xmlns:xlink="http://www.w3.org/1999/xlink">
<defs>
<symbol id="icon-search" viewBox="0 0 32 32">
<path fill="#5f6368" style="fill: var(--color1, #5f6368)" d="M20.667 18.667h-1.053l-0.373-0.36c1.301-1.502 2.093-3.475 2.093-5.634 0-0.002 0-0.004 0-0.006v0c0-4.786-3.88-8.667-8.667-8.667s-8.667 3.88-8.667 8.667c0 4.786 3.88 8.667 8.667 8.667v0c2.147 0 4.12-0.787 5.64-2.093l0.36 0.373v1.053l6.667 6.653 1.987-1.987-6.653-6.667zM12.667 18.667c-3.32 0-6-2.68-6-6s2.68-6 6-6 6 2.68 6 6-2.68 6-6 6z"></path>
</symbol>
</defs>
</svg>